<svg width="16" height="16" viewBox="0 0 16 16" fill="none" xmlns="http://www.w3.org/2000/svg">
<path d="M15.63 14.3502L8.36999 1.66022C8.33407 1.59334 8.28069 1.53746 8.21554 1.4985C8.15039 1.45954 8.0759 1.43896 7.99999 1.43896C7.92408 1.43896 7.84959 1.45954 7.78444 1.4985C7.71928 1.53746 7.66591 1.59334 7.62999 1.66022L0.369989 14.3502C0.331096 14.4155 0.310214 14.49 0.309469 14.566C0.308724 14.642 0.328144 14.7169 0.36575 14.7829C0.403356 14.849 0.457804 14.9039 0.523545 14.9421C0.589287 14.9803 0.663971 15.0003 0.739989 15.0002H15.26C15.336 15.0003 15.4107 14.9803 15.4764 14.9421C15.5422 14.9039 15.5966 14.849 15.6342 14.7829C15.6718 14.7169 15.6913 14.642 15.6905 14.566C15.6898 14.49 15.6689 14.4155 15.63 14.3502V14.3502ZM7.99999 13.0002C7.80221 13.0002 7.60887 12.9416 7.44442 12.8317C7.27997 12.7218 7.1518 12.5656 7.07611 12.3829C7.00042 12.2002 6.98062 11.9991 7.0192 11.8051C7.05779 11.6111 7.15303 11.433 7.29288 11.2931C7.43274 11.1533 7.61092 11.058 7.8049 11.0194C7.99888 10.9808 8.19995 11.0007 8.38267 11.0763C8.5654 11.152 8.72158 11.2802 8.83146 11.4446C8.94134 11.6091 8.99999 11.8024 8.99999 12.0002C8.99999 12.2654 8.89463 12.5198 8.7071 12.7073C8.51956 12.8949 8.26521 13.0002 7.99999 13.0002V13.0002ZM8.65999 9.58022C8.6341 9.70274 8.56567 9.81213 8.46683 9.88901C8.36798 9.96589 8.24511 10.0053 8.11999 10.0002H7.87999C7.75487 10.0053 7.632 9.96589 7.53315 9.88901C7.43431 9.81213 7.36588 9.70274 7.33999 9.58022L6.99999 5.83022C7.02531 5.5887 7.14409 5.36666 7.33096 5.21157C7.51782 5.05647 7.75794 4.98062 7.99999 5.00022C8.24204 4.98062 8.48216 5.05647 8.66902 5.21157C8.85588 5.36666 8.97467 5.5887 8.99999 5.83022L8.65999 9.58022Z" fill="#FAA21B"/>
</svg>
